<?xml version="1.0" encoding="utf-8"?>
<!-- Generator: Adobe Illustrator 23.0.2, SVG Export Plug-In . SVG Version: 6.00 Build 0)  -->
<svg version="1.1" xmlns="http://www.w3.org/2000/svg" xmlns:xlink="http://www.w3.org/1999/xlink" x="0px" y="0px"
	 viewBox="0 0 370.3 360.2" style="enable-background:new 0 0 370.3 360.2;" xml:space="preserve">
<style type="text/css">
	.st0{fill:#0F0F0F;stroke:#FFFFFF;stroke-width:4;}
	.st1{fill:#FFFFFF;}
	.st2{fill:none;stroke:#FFFFFF;stroke-width:5;stroke-linecap:round;stroke-linejoin:round;}
	.st3{fill:none;stroke:#FFFFFF;stroke-width:5;}
	.st4{fill:none;stroke:#FFFFFF;stroke-width:3;stroke-linecap:round;}
	.st5{fill-rule:evenodd;clip-rule:evenodd;fill:#FFFFFF;stroke:#FFFFFF;stroke-width:2;}
	.st6{fill:#000;stroke:#FFFFFF;stroke-width:2;}
	.st6 {
	  animation-name: first-fade;
	  animation-duration: 2s;
	  animation-direction: alternate;
	  animation-iteration-count: infinite;
	  animation-delay: 2s;
	}
	.st5{
	  animation-name: second-fade;
	  animation-duration: 2s;
	  animation-direction: alternate;
	  animation-iteration-count: infinite;
	  animation-delay: 1.8s;
	  }
	.st1{
	  animation-name: third-fade;
	  animation-duration: 2s;
	  animation-direction: alternate;
	  animation-iteration-count: infinite;
	  animation-delay: 1.6s;
	}
	.st2{
	  animation-name: forth-fade;
	  animation-duration: 2s;
	  animation-direction: alternate;
	  animation-iteration-count: infinite;
	  animation-delay: 1.4s;
	}
	.st3,.st4{
	  animation-name: fifth-fade;
	  animation-duration: 2s;
	  animation-direction: alternate;
	  animation-iteration-count: infinite;
	  animation-delay: 1.2s;
	}
	@keyframes first-fade {
	  0% {opacity:1;}
	  25% {opacity:.8;}
	  50% {opacity:.6;}
	  75% {opacity:.4;}
	  100% {opacity:0;}
	}
	@keyframes second-fade {
	  0% {opacity:1;}
	  25% {opacity:.8;}
	  50% {opacity:.6;}
	  75% {opacity:.4;}
	  100% {opacity:0;}
	}
	@keyframes third-fade {
	  0% {opacity:1;}
	  25% {opacity:.8;}
	  50% {opacity:.6;}
	  75% {opacity:.4;}
	  100% {opacity:0;}
	}
	@keyframes forth-fade {
	  0% {opacity:1;}
	  25% {opacity:.8;}
	  50% {opacity:.6;}
	  75% {opacity:.4;}
	  100% {opacity:0;}
	}
	@keyframes fifth-fade {
	  0% {opacity:1;}
	  25% {opacity:.8;}
	  50% {opacity:.6;}
	  75% {opacity:.4;}
	  100% {opacity:0;}
	}
	.st0{
      stroke: #fff;
	  animation-name: border1;
	  animation-duration: 3s;
	  animation-direction: alternate;
	  animation-iteration-count: infinite;
	  animation-delay: 3s;}

	  @keyframes border1 {
	  from{stroke: #fff;}
	  to{stroke: transparent;}
	}
</style>
<g id="hexagons">
	<g>
		<path id="Path_5-2" class="st0" d="M360.3,254.2v63.7l-55.2,31l-54.5-31v-63.7l54.5-32.3L360.3,254.2z"/>
		<path id="Path_3-2" class="st0" d="M238,254.2v63.7l-55.2,31l-54.5-31v-63.7l54.5-32.3L238,254.2z"/>
		<path id="Path_2-2" class="st0" d="M115.7,254.2v63.7l-55.2,31L6,317.9v-63.7l54.5-32.3L115.7,254.2z"/>
		<path id="Path_4-2" class="st0" d="M299.7,145.5v63.7l-55.2,31l-54.5-31v-63.7l54.5-32.3L299.7,145.5z"/>
		<path id="Path_1-2" class="st0" d="M177,145.5v63.7l-55.2,31l-54.5-31v-63.7l54.5-32.3L177,145.5z"/>
		<path id="Path_6-2" class="st0" d="M128.6,100V36.3l55.2-31l54.5,31V100l-54.5,32.3L128.6,100z"/>
	</g>
</g>
<g id="shares">
	<path id="Arrow" class="st1" d="M277,310.8c-0.3,0-0.5,0-0.7-0.1c-1-0.3-1.7-1.3-1.7-2.4c0-0.4,2.5-35.1,37.3-37.8V258
		c0-1.3,1.1-2.4,2.4-2.4c0.6,0,1.3,0.3,1.7,0.7l23.6,24.1c0.9,0.9,0.9,2.4,0,3.3l-23.6,24.1c-0.9,0.9-2.4,1-3.4,0
		c-0.5-0.5-0.7-1.1-0.7-1.7V294c-23.2,0.9-32.8,15.5-32.9,15.7C278.5,310.4,277.8,310.8,277,310.8z M316.6,263.9v8.9
		c0,1.3-1,2.3-2.3,2.4c-22.5,0.8-30.6,15.8-33.5,25.5c6-5.2,16.6-11.5,33.3-11.5h0.1c1.3,0,2.4,1.1,2.4,2.4v8.9l17.9-18.2
		L316.6,263.9z"/>
</g>
<g id="comment">
	<path id="Path_20" class="st2" d="M184.1,310.4h-26.3c-1.3,0-2.4-1.1-2.4-2.4l0,0v-26.3c0-15.8,12.8-28.7,28.7-28.7l0,0
		c15.8,0,28.7,12.8,28.7,28.7l0,0l0,0C212.7,297.6,199.9,310.4,184.1,310.4L184.1,310.4z"/>
	<circle id="Ellipse_2" class="st1" cx="183.9" cy="283.1" r="5"/>
	<circle id="Ellipse_3" class="st1" cx="198.9" cy="283.1" r="5"/>
	<circle id="Ellipse_4" class="st1" cx="168.9" cy="283.1" r="5"/>
</g>
<g id="follower">
	<path id="Rectangle_8" class="st3" d="M55.9,290.1h11c12.2,0,22,9.8,22,22v4l0,0h-55l0,0v-4C33.9,300,43.8,290.1,55.9,290.1z"/>
	<circle id="Ellipse_1" class="st3" cx="61.9" cy="265.1" r="15"/>
	<line id="Line_9" class="st4" x1="86.4" y1="282.6" x2="102.4" y2="282.6"/>
	<line id="Line_10" class="st4" x1="94.4" y1="274.6" x2="94.4" y2="290.6"/>
</g>
<g id="dill">
	<path id="Path_19" class="st5" d="M245.1,206l-1.2,0.5l-1.2-0.5c-15.1-9.2-30.9-30.2-30.9-41.9c0.1-9.7,8-17.4,17.7-17.3
		c5.8,0.1,11.2,3,14.4,7.8c5.4-8,16.2-10.2,24.3-4.9c4.8,3.2,7.7,8.6,7.8,14.4C276,175.7,260.2,196.8,245.1,206z M258.5,149.7
		c-4.9,0-9.4,2.4-12.1,6.5l-2.4,3.6l-2.4-3.6c-4.5-6.7-13.5-8.5-20.2-4c-4,2.7-6.4,7.1-6.5,12c0,10.3,14.9,30.3,29.1,39.2
		c14.2-8.9,29.1-28.9,29.1-39.2C273,156.1,266.5,149.7,258.5,149.7z"/>
</g>
<g id="tiktok_1_">
	<g>
		<path id="Path_7" class="st6" d="M211.6,55.5c-0.2-0.2-0.5-0.3-0.7-0.3c-3.3,0.4-6.6-0.5-9.3-2.4c-3.3-2.5-4.9-6.2-5.3-12.2
			c0-0.5-0.5-0.9-1-0.9h-10.1c-0.5,0-1,0.4-1,1l0,0c0,13.1,0,24.7,0,38.5c0,0.5,0.4,1,1,1s1-0.4,1-1l0,0c0-13.6,0-24.7,0-37.5h8.2
			c0.4,8.4,5.7,15.9,15.7,15.5v8.7c-4.2-0.3-8.2-0.5-12-2.5c-1-0.3-3.2-2-3.5-0.1c-0.1,0.9,0.1,14.8,0.1,19.2
			c-0.5,24-34.4,26.3-37.6,1.9c-0.9-9.7,6.5-18.9,16.3-20.1c0.5-0.1,0.9-0.6,0.8-1.1c-0.1-0.5-0.5-0.9-1.1-0.8
			c-10.8,1.3-19.1,11.5-18,22.2c3.5,27,40.9,24.4,41.5-2.1c0-4.9-0.1-14.2-0.1-17.7c1.8,0.9,3.7,1.6,5.6,2.1c2.9,0.5,5.9,0.8,8.9,1
			c0.5,0.1,1-0.3,1.1-0.9c0,0,0-0.1,0-0.1V56.2C211.9,55.9,211.8,55.7,211.6,55.5z"/>
		<path id="Path_8" class="st6" d="M165.2,82.9c0.2,11.4,15.9,14.6,20.2,3.8c0.2-0.5-0.1-1.1-0.6-1.3c-0.5-0.2-1,0.1-1.2,0.6
			c-3.5,8.7-16.3,6.2-16.4-3.2c-0.1-4.1,2.9-7.7,6.9-8.4c1.6-0.1,3.1-0.1,4.7,0c0.5,0,1-0.4,1-1c0,0,0,0,0,0V63.3c0-0.5-0.4-1-1-1
			c-0.5,0-1,0.4-1,1v9.2C171.2,71.5,165.2,75.9,165.2,82.9z"/>
	</g>
</g>
</svg>
